<?xml version="1.0" encoding="utf-8"?><svg xmlns="http://www.w3.org/2000/svg" xmlns:xlink="http://www.w3.org/1999/xlink" viewBox="0 0 42 42" ><path fill="#374882" d="M21,1C10,1,1,10,1,21s9,20,20,20c11,0,20-9,20-20S32,1,21,1z M5.5,14C9.4,5.5,19.4,1.7,27.9,5.5 c0.1,0,0.2,0.1,0.3,0.2c0.1,0.2,0.1,0.5-0.2,0.7l-10.2,8.3c-0.1,0.1-0.2,0.1-0.3,0.1H6c-0.1,0-0.2,0-0.3-0.1 C5.4,14.5,5.4,14.2,5.5,14z M11.3,35c-2.6-1.8-4.7-4.4-5.9-7.3c-0.1-0.2,0-0.5,0.2-0.6l24.6-20c0.2-0.1,0.4-0.2,0.6,0 c1.3,0.9,2.5,2,3.5,3.2c1,1.2,1.8,2.6,2.5,4.1c0.1,0.2,0,0.5-0.2,0.6l-24.6,20C11.7,35.1,11.5,35.1,11.3,35z M36.5,28 c-3.9,8.5-13.9,12.3-22.4,8.5c-0.1,0-0.2-0.1-0.3-0.2c-0.1-0.2,0-0.5,0.2-0.7l10.2-8.3c0.1-0.1,0.2-0.1,0.3-0.1H36 c0.1,0,0.2,0,0.3,0.1C36.6,27.5,36.6,27.8,36.5,28z"/></svg>